<!DOCTYPE svg PUBLIC "-//W3C//DTD SVG 1.1//EN" "http://www.w3.org/Graphics/SVG/1.1/DTD/svg11.dtd">
<svg xmlns="http://www.w3.org/2000/svg" viewBox="0 0 3084 3084">

<path fill="currentColor" d="M480 30.113c-6.325.433-25.225 1.206-42 1.717-23.597.718-31.542 1.293-35.103 2.539-4.989 1.745-25.71 13.473-51.942 29.398-9.099 5.524-18.774 11.285-21.5 12.802-12.492 6.954-33.255 22.076-36.462 26.555-.279.39-2.245 2.089-4.367 3.776-2.123 1.687-12.02 10.878-21.993 20.425-9.973 9.548-19.933 18.882-22.133 20.744-14.561 12.322-20.161 18.739-43.727 50.104-5.65 7.521-15.474 20.121-21.83 28-17.31 21.458-18.756 23.56-32.208 46.827a17118.873 17118.873 0 0 1-26.717 46c-14.254 24.444-23.103 41.669-28.846 56.155-1.669 4.21-3.919 9.61-4.999 12-1.08 2.39-4.071 9.473-6.646 15.741-2.574 6.269-8.194 19.319-12.487 29C58.194 451.845 55.694 458.51 49.372 479c-2.46 7.975-7.877 24.85-12.037 37.5-14.281 43.425-20.479 68.243-25.724 103-2.118 14.031-4.491 30.23-5.164 35.25-.355 2.647-1.085 4.25-1.935 4.25-.751 0-1.571.788-1.823 1.75-.251.962-.509.288-.573-1.5C2.052 657.462 1.55 656 1 656c-.662 0-.964 41.179-.893 121.75.07 79.969.435 120.285 1.063 117.48.876-3.915 2.83-5.068 2.83-1.671 0 .793.45 1.441 1 1.441s.999.788.998 1.75c-.003 2.125 4.804 27.581 9.584 50.75 5.491 26.62 10.989 48.054 15.526 60.534 2.292 6.306 6.597 19.341 9.566 28.966 11.49 37.251 17.798 56.238 25.081 75.5 20.084 53.117 32.961 86.336 38.765 100 3.504 8.25 8.821 20.85 11.815 28 2.994 7.15 9.235 21.55 13.87 32s10.119 23.05 12.187 28c9.295 22.247 73.205 151.336 85.897 173.5 3.308 5.775 10.61 19.275 16.229 30 5.618 10.725 13.485 25.125 17.481 32 3.997 6.875 11.634 20.6 16.973 30.5 5.339 9.9 12.755 22.95 16.48 29 3.725 6.05 10.972 17.975 16.104 26.5 5.132 8.525 12.714 20.675 16.85 27 4.136 6.325 8.727 13.525 10.203 16 8.351 14.008 20.416 33.597 25.251 41 3.054 4.675 10.297 16.249 16.096 25.719 18.255 29.812 30.246 48.936 39.557 63.085 8.583 13.043 11.233 16.88 21.201 30.696 2.381 3.3 12.046 17.025 21.478 30.5 9.432 13.475 20.764 29.45 25.181 35.5 4.418 6.05 10.535 14.6 13.594 19 3.059 4.4 8.552 12.05 12.206 17 3.654 4.95 8.598 11.777 10.985 15.17 2.388 3.394 7.052 9.694 10.365 14 3.312 4.307 8.912 12.105 12.443 17.33 6.09 9.011 16.28 22.716 30.111 40.5 3.422 4.4 10.572 12.95 15.889 19 5.316 6.05 12.319 14.375 15.561 18.5 4.685 5.962 16.01 19.603 22.968 27.664.553.641 5.361 6.491 10.686 13 5.324 6.51 15.899 19.422 23.5 28.693 7.6 9.271 16.061 19.621 18.802 23L702.844 2167c12.555 15.484 24.513 28.773 47.241 52.495 5.272 5.503 12.449 13.155 15.948 17.005 12.399 13.641 60.484 63.595 84.579 87.865 1.712 1.724 8.882 9.435 15.934 17.135 23.25 25.389 32.113 33.718 74.865 70.362 16.3 13.973 25.481 22.166 35.058 31.287 4.417 4.207 10.956 10.05 14.531 12.984 8.97 7.363 38.911 33.89 54 47.843 26.692 24.682 52.167 44.445 101.636 78.848 5.792 4.028 22.306 16.209 36.698 27.069 14.391 10.859 29.766 22.162 34.166 25.118 4.4 2.956 16.951 11.868 27.89 19.804 27.425 19.894 33.128 23.69 52.344 34.834 9.221 5.348 24.1 14.137 33.064 19.532 8.964 5.395 26.514 15.493 39 22.44 25.84 14.378 33.543 18.819 62.202 35.865 62.042 36.901 62.24 37.008 89.5 48.329 9.35 3.883 24.2 10.288 33 14.234 8.8 3.946 23.2 10.236 32 13.979 23.807 10.124 75.734 32.609 131 56.724 8.8 3.84 19.15 8.13 23 9.534 13.936 5.08 58.553 22.665 83 32.714 21.701 8.919 37.602 14.84 62 23.087 6.365 2.152 18.3 6.573 35.472 13.14 42.792 16.367 84.935 29.309 135.751 41.688A56472.758 56472.758 0 0 1 2116 3035.39c12.375 3.033 27.225 6.01 33 6.615 5.775.605 19.275 2.168 30 3.473 10.725 1.304 24.225 2.659 30 3.01 5.775.351 18.6 1.489 28.5 2.528 32.758 3.44 51.617 4.218 73.211 3.021 34.649-1.921 68.715-5.989 93.289-11.142 5.225-1.095 14-2.883 19.5-3.973 23.665-4.688 52.141-11.472 67-15.962 8.8-2.659 24.775-7.363 35.5-10.454 30.577-8.811 49.988-15.199 67.408-22.183 16.685-6.689 23.459-9.263 49.592-18.848 14.726-5.401 42.298-17.987 63-28.758 43.861-22.822 49.398-26.013 74.5-42.947 61.056-41.189 59.251-39.769 92.273-72.574 15.886-15.783 30.721-31.171 32.965-34.196 8.206-11.061 43.726-71.694 49.794-85 17.086-37.466 36.532-97.442 46.004-141.887a8695.106 8695.106 0 0 1 5.931-27.613c1.315-6.05 3.782-21.125 5.483-33.5 1.701-12.375 4.037-27.9 5.192-34.5 1.773-10.143 2.172-17.418 2.576-47l.477-35-4.545-9c-14.092-27.901-49.556-56.557-104.65-84.559-21.703-11.031-56.899-31.585-98-57.23-35.74-22.3-63.99-39.015-130.5-77.213-9.35-5.37-19.025-10.998-21.5-12.506-2.475-1.508-7.425-4.397-11-6.42-3.575-2.023-8.525-4.938-11-6.479-4.992-3.106-55.38-33.011-78-46.293-7.975-4.682-25.075-14.514-38-21.848-12.925-7.333-26.425-15.115-30-17.293-7.366-4.487-8.192-4.957-24-13.652-6.325-3.479-16.9-9.332-23.5-13.008-13.922-7.753-34.487-18.817-53-28.516-7.15-3.746-18.175-9.74-24.5-13.322-22.394-12.679-51.297-24.887-66.788-28.209-4.627-.992-6.613-.678-25.135 3.98-31.264 7.861-37.036 10.449-58.66 26.307a4788.108 4788.108 0 0 1-20.417 14.889c-13.957 10.099-18.47 14.364-35.766 33.806-9.085 10.211-21.066 23.313-26.626 29.114-5.559 5.802-14.158 15.876-19.108 22.387-4.95 6.51-10.587 13.689-12.527 15.951-1.94 2.263-6.44 8.065-10 12.894-3.56 4.828-12.773 16.813-20.473 26.632-7.7 9.818-17.6 22.655-22 28.524-17.651 23.549-36.622 46.707-48 58.596-6.6 6.896-16.275 17.452-21.5 23.457-13.549 15.573-30.671 32.277-44 42.927-6.325 5.054-16.45 13.135-22.5 17.957-12.362 9.854-25.969 17.125-39.5 21.108-4.675 1.376-11.65 3.619-15.5 4.984-22.492 7.979-55.835-2.431-105.5-32.936-12.925-7.939-31.681-18.872-39.5-23.024-18.858-10.015-44.488-24.86-58-33.593-4.95-3.2-11.925-7.666-15.5-9.926-3.575-2.26-11.9-7.654-18.5-11.987-6.6-4.334-19.2-12.502-28-18.153-8.8-5.65-27.025-17.522-40.5-26.382l-38-24.984c-7.425-4.882-18.675-12.144-25-16.138-70.012-44.212-79.241-50.896-123.409-89.377-6.65-5.794-16.133-13.894-21.074-18-9.017-7.493-39.733-33.912-57.559-49.507a1253.335 1253.335 0 0 0-19.528-16.653c-8.489-7.061-12.542-10.605-19.819-17.332-.611-.564-6.961-5.943-14.111-11.952-34.006-28.579-48.797-42.969-69.945-68.044-6.019-7.137-14.826-17.252-19.57-22.477-4.745-5.225-13.143-14.9-18.663-21.5-5.519-6.6-14.715-17.175-20.435-23.5-5.72-6.325-13.756-15.55-17.858-20.5-4.102-4.95-10.642-12.6-14.533-17s-12.879-14.75-19.974-23c-7.095-8.25-13.199-15.225-13.564-15.5-1.34-1.01-26.797-31.008-32.367-38.14-5.52-7.069-13.683-19.075-32.392-47.643a15457.076 15457.076 0 0 0-19.051-29c-5.693-8.644-12.128-18.758-14.299-22.475-2.17-3.717-8.729-13.842-14.575-22.5-30.602-45.327-46.591-69.356-56.056-84.242-13.904-21.87-20.309-31.758-27.201-42-3.147-4.675-8.424-13-11.728-18.5-3.304-5.5-9.876-16.125-14.604-23.611-15.616-24.727-44.9-80.239-52.72-99.938-2.876-7.245-9.965-37.853-9.965-43.025 0-2.251.93-7.768 2.066-12.259 5.785-22.861 9.273-30.826 19.712-45.007 3.709-5.038 7.413-10.12 8.232-11.294 1.286-1.842 6.727-8.64 15.9-19.866 5.643-6.907 50.483-50.783 61.09-59.777 16.471-13.966 22.703-19.497 48.5-43.046 40.778-37.224 43.528-39.889 55.352-53.635 6.406-7.448 14.597-16.736 18.202-20.641 6.237-6.754 15.297-17.687 21.135-25.506 1.479-1.981 5.92-9.405 9.87-16.498a3201.375 3201.375 0 0 1 13.663-24.255c9.572-16.769 11.033-20.699 14.881-40.031 1.928-9.686 4.128-20.086 4.888-23.111 4.016-15.986 4.731-24.372 3.045-35.727-3.589-24.163-17.263-73.263-31.546-113.273-2.847-7.975-9.821-28-15.499-44.5-9.112-26.482-16.425-46.249-27.929-75.5-1.838-4.675-4.57-11.875-6.07-16a1367.524 1367.524 0 0 0-5.969-16c-1.782-4.675-5.533-14.8-8.335-22.5-2.802-7.7-10.106-27.725-16.23-44.5-6.124-16.775-13.097-36.125-15.495-43-2.398-6.875-6.211-17.45-8.474-23.5-5.606-14.992-20.777-57.083-28.475-79-3.477-9.9-9.555-26.775-13.506-37.5-3.951-10.725-10.928-30.3-15.503-43.5-4.575-13.2-9.7-27.717-11.389-32.26-1.689-4.542-5.553-18.135-8.585-30.206C822.647 130.85 797.138 79.301 770.5 60.52c-17.626-12.428-83.695-26.283-136-28.52-61.414-2.627-131.257-3.48-154.5-1.887" fill-rule="evenodd"/>

</svg>
