<?xml version="1.0" encoding="UTF-8"?>
<svg xmlns="http://www.w3.org/2000/svg" xmlns:xlink="http://www.w3.org/1999/xlink" width="24px" height="24px" viewBox="0 0 24 24" version="1.1">
<g id="surface1">
<path style=" stroke:none;fill-rule:evenodd;fill:rgb(1.568628%,1.568628%,1.568628%);fill-opacity:1;" d="M 3.734375 0.234375 C 3.6875 0.238281 3.539062 0.242188 3.410156 0.246094 C 3.226562 0.253906 3.164062 0.257812 3.136719 0.265625 C 3.097656 0.28125 2.933594 0.371094 2.730469 0.496094 C 2.660156 0.539062 2.585938 0.585938 2.5625 0.597656 C 2.464844 0.648438 2.304688 0.769531 2.28125 0.800781 C 2.277344 0.804688 2.261719 0.820312 2.246094 0.832031 C 2.230469 0.84375 2.152344 0.917969 2.074219 0.992188 C 1.996094 1.066406 1.917969 1.136719 1.902344 1.152344 C 1.789062 1.25 1.746094 1.296875 1.5625 1.542969 C 1.519531 1.601562 1.441406 1.699219 1.390625 1.761719 C 1.257812 1.925781 1.246094 1.945312 1.140625 2.125 C 1.074219 2.242188 1.003906 2.363281 0.933594 2.484375 C 0.824219 2.671875 0.753906 2.808594 0.710938 2.917969 C 0.695312 2.953125 0.679688 2.996094 0.671875 3.011719 C 0.664062 3.03125 0.640625 3.085938 0.617188 3.136719 C 0.597656 3.183594 0.554688 3.285156 0.523438 3.359375 C 0.453125 3.515625 0.433594 3.566406 0.382812 3.726562 C 0.363281 3.789062 0.324219 3.921875 0.289062 4.019531 C 0.179688 4.355469 0.132812 4.550781 0.0898438 4.820312 C 0.0742188 4.929688 0.0546875 5.054688 0.0507812 5.09375 C 0.046875 5.117188 0.0429688 5.128906 0.0351562 5.128906 C 0.0273438 5.128906 0.0234375 5.132812 0.0195312 5.140625 C 0.0195312 5.148438 0.015625 5.144531 0.015625 5.128906 C 0.015625 5.117188 0.0117188 5.105469 0.0078125 5.105469 C 0.00390625 5.105469 0 5.425781 0 6.050781 C 0 6.675781 0.00390625 6.988281 0.0078125 6.964844 C 0.015625 6.9375 0.03125 6.925781 0.03125 6.953125 C 0.03125 6.960938 0.0351562 6.964844 0.0390625 6.964844 C 0.0429688 6.964844 0.046875 6.972656 0.046875 6.980469 C 0.046875 6.996094 0.0859375 7.191406 0.121094 7.375 C 0.164062 7.582031 0.207031 7.746094 0.242188 7.84375 C 0.261719 7.894531 0.292969 7.996094 0.316406 8.070312 C 0.40625 8.359375 0.453125 8.507812 0.511719 8.65625 C 0.667969 9.070312 0.769531 9.328125 0.8125 9.4375 C 0.839844 9.5 0.882812 9.597656 0.90625 9.652344 C 0.929688 9.710938 0.976562 9.820312 1.011719 9.902344 C 1.050781 9.984375 1.09375 10.082031 1.109375 10.121094 C 1.179688 10.292969 1.679688 11.296875 1.777344 11.472656 C 1.800781 11.515625 1.859375 11.621094 1.902344 11.703125 C 1.945312 11.789062 2.007812 11.898438 2.039062 11.953125 C 2.070312 12.007812 2.128906 12.113281 2.171875 12.191406 C 2.210938 12.269531 2.269531 12.371094 2.300781 12.417969 C 2.328125 12.464844 2.382812 12.554688 2.425781 12.621094 C 2.464844 12.6875 2.523438 12.785156 2.554688 12.832031 C 2.585938 12.882812 2.625 12.9375 2.636719 12.957031 C 2.699219 13.066406 2.792969 13.21875 2.832031 13.277344 C 2.855469 13.3125 2.910156 13.402344 2.957031 13.476562 C 3.097656 13.707031 3.191406 13.855469 3.265625 13.96875 C 3.332031 14.070312 3.351562 14.097656 3.429688 14.207031 C 3.449219 14.230469 3.523438 14.339844 3.597656 14.445312 C 3.671875 14.546875 3.757812 14.671875 3.792969 14.71875 C 3.828125 14.765625 3.875 14.832031 3.898438 14.867188 C 3.921875 14.902344 3.964844 14.960938 3.992188 15 C 4.023438 15.039062 4.058594 15.089844 4.078125 15.117188 C 4.097656 15.144531 4.132812 15.195312 4.160156 15.226562 C 4.183594 15.261719 4.230469 15.320312 4.257812 15.363281 C 4.304688 15.433594 4.382812 15.539062 4.492188 15.675781 C 4.515625 15.710938 4.574219 15.777344 4.613281 15.824219 C 4.65625 15.871094 4.710938 15.9375 4.734375 15.96875 C 4.773438 16.015625 4.859375 16.121094 4.914062 16.183594 C 4.917969 16.1875 4.957031 16.234375 4.996094 16.285156 C 5.039062 16.335938 5.121094 16.4375 5.179688 16.507812 C 5.238281 16.582031 5.304688 16.660156 5.328125 16.6875 L 5.46875 16.863281 C 5.566406 16.984375 5.660156 17.085938 5.835938 17.273438 C 5.878906 17.316406 5.933594 17.375 5.960938 17.40625 C 6.058594 17.511719 6.433594 17.898438 6.621094 18.089844 C 6.632812 18.101562 6.6875 18.160156 6.742188 18.222656 C 6.925781 18.417969 6.992188 18.484375 7.324219 18.769531 C 7.453125 18.878906 7.523438 18.941406 7.597656 19.011719 C 7.632812 19.046875 7.683594 19.089844 7.710938 19.113281 C 7.78125 19.171875 8.015625 19.378906 8.132812 19.484375 C 8.339844 19.679688 8.539062 19.832031 8.921875 20.101562 C 8.96875 20.132812 9.097656 20.226562 9.207031 20.308594 C 9.320312 20.394531 9.441406 20.484375 9.476562 20.507812 C 9.507812 20.527344 9.605469 20.597656 9.691406 20.660156 C 9.90625 20.816406 9.949219 20.84375 10.097656 20.929688 C 10.171875 20.972656 10.285156 21.042969 10.355469 21.082031 C 10.425781 21.125 10.5625 21.203125 10.660156 21.257812 C 10.859375 21.371094 10.921875 21.402344 11.144531 21.535156 C 11.625 21.824219 11.628906 21.824219 11.839844 21.914062 C 11.914062 21.941406 12.027344 21.992188 12.097656 22.023438 C 12.164062 22.054688 12.277344 22.101562 12.347656 22.132812 C 12.53125 22.210938 12.9375 22.386719 13.367188 22.574219 C 13.433594 22.605469 13.515625 22.636719 13.542969 22.648438 C 13.652344 22.6875 14 22.824219 14.191406 22.902344 C 14.359375 22.972656 14.484375 23.019531 14.671875 23.082031 C 14.722656 23.097656 14.816406 23.132812 14.949219 23.183594 C 15.28125 23.3125 15.609375 23.414062 16.003906 23.507812 C 16.160156 23.546875 16.3125 23.585938 16.46875 23.621094 C 16.5625 23.644531 16.679688 23.667969 16.722656 23.671875 C 16.769531 23.679688 16.875 23.691406 16.957031 23.699219 C 17.039062 23.710938 17.144531 23.722656 17.191406 23.722656 C 17.234375 23.726562 17.335938 23.734375 17.414062 23.742188 C 17.667969 23.769531 17.8125 23.777344 17.980469 23.765625 C 18.25 23.75 18.515625 23.71875 18.707031 23.679688 C 18.75 23.671875 18.816406 23.65625 18.859375 23.648438 C 19.042969 23.613281 19.265625 23.558594 19.382812 23.523438 C 19.449219 23.503906 19.574219 23.46875 19.65625 23.445312 C 19.894531 23.375 20.046875 23.324219 20.183594 23.269531 C 20.3125 23.21875 20.363281 23.199219 20.566406 23.125 C 20.683594 23.082031 20.898438 22.984375 21.058594 22.902344 C 21.398438 22.722656 21.441406 22.699219 21.636719 22.566406 C 22.113281 22.246094 22.097656 22.257812 22.355469 22 C 22.480469 21.878906 22.59375 21.757812 22.613281 21.734375 C 22.675781 21.648438 22.953125 21.175781 23 21.074219 C 23.132812 20.78125 23.285156 20.316406 23.359375 19.96875 C 23.375 19.898438 23.390625 19.828125 23.40625 19.753906 C 23.414062 19.707031 23.433594 19.589844 23.445312 19.496094 C 23.460938 19.398438 23.476562 19.277344 23.488281 19.226562 C 23.5 19.148438 23.503906 19.089844 23.507812 18.859375 L 23.511719 18.585938 L 23.476562 18.515625 C 23.367188 18.300781 23.089844 18.078125 22.660156 17.859375 C 22.492188 17.773438 22.21875 17.613281 21.898438 17.414062 C 21.621094 17.242188 21.402344 17.109375 20.882812 16.8125 C 20.808594 16.769531 20.734375 16.726562 20.714844 16.714844 C 20.695312 16.703125 20.65625 16.683594 20.628906 16.664062 C 20.601562 16.648438 20.5625 16.628906 20.542969 16.617188 C 20.507812 16.589844 20.113281 16.359375 19.9375 16.253906 C 19.875 16.21875 19.742188 16.140625 19.640625 16.085938 C 19.542969 16.027344 19.4375 15.96875 19.410156 15.949219 C 19.351562 15.914062 19.34375 15.910156 19.222656 15.84375 C 19.171875 15.816406 19.089844 15.773438 19.039062 15.742188 C 18.929688 15.683594 18.769531 15.597656 18.625 15.519531 C 18.570312 15.492188 18.484375 15.445312 18.4375 15.417969 C 18.261719 15.320312 18.035156 15.222656 17.917969 15.199219 C 17.878906 15.191406 17.863281 15.191406 17.71875 15.230469 C 17.476562 15.289062 17.433594 15.308594 17.265625 15.433594 C 17.210938 15.472656 17.15625 15.511719 17.105469 15.550781 C 16.996094 15.628906 16.960938 15.660156 16.828125 15.8125 C 16.757812 15.890625 16.664062 15.992188 16.621094 16.039062 C 16.578125 16.085938 16.507812 16.164062 16.472656 16.214844 C 16.433594 16.265625 16.386719 16.320312 16.375 16.335938 C 16.359375 16.355469 16.324219 16.402344 16.296875 16.4375 C 16.269531 16.476562 16.195312 16.570312 16.136719 16.644531 C 16.078125 16.722656 16 16.820312 15.964844 16.867188 C 15.828125 17.050781 15.679688 17.230469 15.589844 17.324219 C 15.539062 17.375 15.464844 17.460938 15.425781 17.503906 C 15.320312 17.625 15.183594 17.757812 15.082031 17.839844 C 15.03125 17.878906 14.953125 17.941406 14.90625 17.980469 C 14.808594 18.054688 14.703125 18.113281 14.597656 18.144531 C 14.5625 18.15625 14.507812 18.171875 14.480469 18.183594 C 14.304688 18.246094 14.042969 18.164062 13.65625 17.925781 C 13.558594 17.863281 13.410156 17.78125 13.351562 17.746094 C 13.203125 17.667969 13.003906 17.554688 12.898438 17.484375 C 12.859375 17.460938 12.804688 17.425781 12.777344 17.410156 C 12.75 17.390625 12.6875 17.347656 12.632812 17.316406 C 12.582031 17.28125 12.484375 17.21875 12.417969 17.175781 C 12.347656 17.128906 12.207031 17.039062 12.101562 16.96875 L 11.804688 16.773438 C 11.746094 16.734375 11.660156 16.679688 11.609375 16.648438 C 11.066406 16.304688 10.996094 16.253906 10.652344 15.953125 C 10.597656 15.90625 10.523438 15.84375 10.488281 15.8125 C 10.417969 15.753906 10.175781 15.550781 10.039062 15.425781 C 9.988281 15.382812 9.9375 15.339844 9.886719 15.296875 C 9.820312 15.242188 9.789062 15.214844 9.730469 15.164062 C 9.726562 15.160156 9.679688 15.117188 9.621094 15.070312 C 9.359375 14.847656 9.242188 14.734375 9.078125 14.539062 C 9.03125 14.484375 8.960938 14.40625 8.925781 14.367188 C 8.890625 14.324219 8.824219 14.25 8.78125 14.199219 C 8.738281 14.148438 8.667969 14.066406 8.621094 14.015625 C 8.578125 13.964844 8.515625 13.894531 8.484375 13.855469 C 8.449219 13.816406 8.398438 13.757812 8.371094 13.722656 C 8.339844 13.691406 8.269531 13.609375 8.214844 13.542969 C 8.160156 13.480469 8.113281 13.425781 8.109375 13.425781 C 8.097656 13.417969 7.898438 13.183594 7.855469 13.128906 C 7.8125 13.074219 7.75 12.980469 7.605469 12.757812 C 7.554688 12.679688 7.507812 12.605469 7.457031 12.53125 C 7.410156 12.464844 7.363281 12.386719 7.34375 12.355469 C 7.328125 12.328125 7.277344 12.25 7.230469 12.179688 C 6.992188 11.828125 6.867188 11.640625 6.796875 11.523438 C 6.6875 11.355469 6.636719 11.277344 6.582031 11.199219 C 6.558594 11.160156 6.519531 11.097656 6.492188 11.054688 C 6.46875 11.011719 6.414062 10.929688 6.378906 10.871094 C 6.257812 10.679688 6.03125 10.246094 5.96875 10.09375 C 5.945312 10.035156 5.890625 9.796875 5.890625 9.757812 C 5.890625 9.742188 5.898438 9.699219 5.90625 9.664062 C 5.953125 9.484375 5.980469 9.421875 6.058594 9.3125 C 6.089844 9.273438 6.117188 9.234375 6.125 9.226562 C 6.132812 9.210938 6.175781 9.15625 6.25 9.070312 C 6.292969 9.015625 6.640625 8.675781 6.722656 8.605469 C 6.851562 8.496094 6.902344 8.453125 7.101562 8.269531 C 7.417969 7.980469 7.441406 7.960938 7.53125 7.851562 C 7.582031 7.792969 7.644531 7.722656 7.671875 7.691406 C 7.722656 7.640625 7.792969 7.554688 7.839844 7.492188 C 7.847656 7.476562 7.882812 7.421875 7.914062 7.363281 C 7.949219 7.300781 7.984375 7.238281 8.019531 7.175781 C 8.09375 7.046875 8.105469 7.015625 8.136719 6.863281 C 8.152344 6.789062 8.167969 6.707031 8.175781 6.683594 C 8.207031 6.558594 8.210938 6.496094 8.199219 6.40625 C 8.171875 6.21875 8.0625 5.835938 7.953125 5.523438 C 7.929688 5.464844 7.875 5.308594 7.832031 5.179688 C 7.761719 4.972656 7.703125 4.820312 7.617188 4.589844 C 7.601562 4.554688 7.578125 4.5 7.566406 4.46875 C 7.554688 4.425781 7.539062 4.382812 7.523438 4.34375 C 7.507812 4.304688 7.480469 4.226562 7.457031 4.167969 C 7.433594 4.105469 7.378906 3.953125 7.332031 3.820312 C 7.28125 3.691406 7.226562 3.539062 7.210938 3.488281 C 7.191406 3.433594 7.160156 3.351562 7.144531 3.304688 C 7.101562 3.1875 6.980469 2.859375 6.921875 2.6875 C 6.894531 2.613281 6.847656 2.480469 6.816406 2.398438 C 6.785156 2.3125 6.730469 2.160156 6.695312 2.058594 C 6.660156 1.957031 6.621094 1.84375 6.609375 1.808594 C 6.59375 1.773438 6.566406 1.667969 6.542969 1.570312 C 6.402344 1.019531 6.203125 0.617188 5.996094 0.472656 C 5.859375 0.375 5.34375 0.265625 4.9375 0.25 C 4.460938 0.230469 3.917969 0.222656 3.734375 0.234375 "/>
</g>
</svg>
