<svg xmlns="http://www.w3.org/2000/svg" viewBox="0 0 24 24"><path fill="currentColor" d="M12 2a10 10 0 1 0 0 20 10 10 0 0 0 0-20zm4.4 14.1c-.3.4-.9.5-1.4.2-1.9-1.1-4.3-1.3-7.1-.6-.5.2-1.1 0-1.3-.5-.2-.5 0-1.1.5-1.3 3.3-.8 6.2-.6 8.5.8.5.3.6.9.8 1.4.1.4 0 .9-.5 1.3zM17 11.3c-.4.6-1.1.8-1.7.4-2.4-1.4-5.8-1.8-8.6-.9-.6.2-1.2-.1-1.4-.7-.2-.6.1-1.2.7-1.4 3.6-1.1 7.6-.6 10.5 1.1.6.3.8 1 .5 1.5zM16.7 8c-.5.7-1.4.9-2.1.4-2.7-1.6-6.6-1.8-9.2-1-.8.2-1.5-.3-1.7-1.1-.2-.8.3-1.5 1.1-1.7 3.7-.9 8.1-.6 11.2 1.2.7.4.9 1.4.7 2.2z"/></svg>