<svg role="img" viewBox="0 0 24 24" xmlns="http://www.w3.org/2000/svg"><title>TikTok</title><path fill="currentColor" d="M 12.995,0.016 L 12.521,0.034 L 12.518,7.626 C 12.514,17.806 12.516,17.77 12.02,18.525 C 10.716,20.513 7.939,20.674 6.49,18.846 C 5.377,17.441 5.474,15.585 6.725,14.357 C 7.546,13.552 8.826,13.176 9.895,13.427 C 10.073,13.469 10.225,13.497 10.233,13.489 C 10.241,13.482 10.263,12.488 10.283,11.281 L 10.319,9.086 L 10.018,9.049 C 5.584,8.495 1.566,12.025 1.571,16.47 C 1.574,18.686 2.655,21.019 4.239,22.228 C 4.454,22.392 4.756,22.627 4.909,22.75 C 5.759,23.429 7.254,23.927 8.642,23.992 C 12.143,24.155 15.309,21.908 16.281,18.568 C 16.569,17.581 16.582,17.328 16.582,12.563 C 16.582,10.147 16.597,8.154 16.616,8.135 C 16.634,8.117 16.75,8.17 16.873,8.255 C 18.074,9.079 20.005,9.776 21.458,9.909 L 22.104,9.968 L 22.429,9.997 L 22.429,5.951 L 21.901,5.881 C 20.342,5.673 18.688,4.794 17.836,3.721 C 17.111,2.808 16.642,1.7 16.513,0.599 L 16.444,0.003 L 14.956,0 C 14.138,-0.001 13.255,0.006 12.995,0.016"/></svg>
