<!DOCTYPE svg PUBLIC "-//W3C//DTD SVG 1.1//EN" "http://www.w3.org/Graphics/SVG/1.1/DTD/svg11.dtd">
<svg xmlns="http://www.w3.org/2000/svg" viewBox="0 0 474 474">
<path d="m255.75 15.737-8.75.341-.052 140.211c-.07 188.039-.039 187.364-9.196 201.316-24.098 36.72-75.378 39.696-102.138 5.929-20.564-25.948-18.775-60.227 4.326-82.905 15.164-14.886 38.819-21.83 58.552-17.188 3.295.775 6.108 1.293 6.25 1.151.142-.142.555-18.498.918-40.79l.661-40.531-5.55-.694C118.877 172.345 44.657 237.55 44.754 319.642c.048 40.933 20.021 84.036 49.284 106.358 3.965 3.025 9.534 7.36 12.374 9.632 15.691 12.556 43.305 21.744 68.951 22.942 64.66 3.02 123.125-38.488 141.094-100.173 5.309-18.225 5.543-22.905 5.543-110.908 0-44.638.282-81.442.627-81.787.345-.345 2.483.646 4.75 2.202 22.196 15.233 57.858 28.098 84.685 30.549L424 199.55l6 .549v-74.743l-9.75-1.297c-28.802-3.833-59.345-20.061-75.086-39.894C331.78 67.3 323.113 46.841 320.737 26.5l-1.285-11-27.476-.052c-15.112-.029-31.413.101-36.226.289" fill-rule="evenodd"/>
</svg>